<?xml version="1.0" standalone="no"?>
<!DOCTYPE svg PUBLIC "-//W3C//DTD SVG 20010904//EN"
 "http://www.w3.org/TR/2001/REC-SVG-20010904/DTD/svg10.dtd">
<svg version="1.0" xmlns="http://www.w3.org/2000/svg"
 width="7000.000000pt" height="7000.000000pt" viewBox="0 0 7000.000000 7000.000000"
 preserveAspectRatio="xMidYMid meet">

<g transform="translate(0.000000,7000.000000) scale(0.100000,-0.100000)"
fill="#000000" stroke="none">
<path d="M40655 41251 c-22 -10 -46 -25 -53 -33 -15 -19 -30 -49 -537 -1088
-404 -827 -1094 -2238 -2370 -4840 -400 -817 -737 -1498 -748 -1513 -26 -38
-38 -34 -189 57 -105 63 -123 72 -126 56 -4 -25 33 -95 121 -227 478 -715
1084 -1167 1861 -1389 648 -184 1467 -189 2326 -13 493 102 1117 295 1685 521
1352 539 2912 1438 4511 2600 l224 163 0 1022 0 1022 -561 1153 c-309 634
-703 1443 -875 1798 -172 355 -325 659 -339 677 -15 19 -41 36 -63 42 -25 8
-805 11 -2432 11 -2294 0 -2397 -1 -2435 -19z m2667 -2543 c91 -189 345 -710
563 -1158 1127 -2313 1335 -2744 1335 -2766 0 -13 -9 -32 -21 -43 -11 -10
-129 -75 -262 -145 -1232 -640 -2570 -1127 -3612 -1315 -216 -39 -302 -52
-724 -106 -350 -46 -441 -53 -441 -35 0 13 198 419 1177 2415 1485 3025 1724
3510 1746 3533 l22 24 25 -30 c14 -17 100 -185 192 -374z"/>
<path d="M38518 39723 c-741 -738 -1207 -1249 -1711 -1878 -1179 -1469 -2023
-2982 -2366 -4239 -269 -986 -272 -1791 -10 -2463 296 -755 943 -1276 1864
-1498 754 -182 1791 -155 2859 75 1164 250 2379 695 3716 1362 899 448 1445
772 2587 1535 314 210 582 385 595 388 13 3 31 0 40 -7 15 -12 189 -364 991
-2011 l272 -558 3 2192 c1 1206 0 2194 -2 2196 -2 3 -60 -36 -127 -84 -1457
-1047 -3003 -1905 -4514 -2506 -1904 -757 -3656 -1013 -4857 -712 -832 209
-1387 623 -1704 1270 -449 917 -322 2190 373 3715 463 1015 1208 2153 2120
3238 285 339 323 385 323 393 0 34 -83 -40 -452 -408z"/>
<path d="M5825 38263 c-102 -9 -258 -38 -369 -68 -147 -40 -248 -80 -386 -151
-106 -54 -231 -131 -197 -120 48 15 249 46 369 57 226 20 536 -4 703 -55 28
-9 53 -16 58 -16 4 0 7 81 7 180 l0 180 -72 -2 c-40 -1 -91 -3 -113 -5z"/>
<path d="M5779 37445 c-605 -83 -1016 -406 -1189 -936 -33 -100 -74 -293 -85
-399 l-7 -65 54 60 c31 33 67 74 81 91 42 50 248 230 350 306 311 234 633 368
947 394 l80 7 0 278 0 279 -67 -1 c-38 -1 -111 -7 -164 -14z"/>
<path d="M5923 36580 c-336 -183 -554 -410 -714 -745 -151 -317 -224 -732
-203 -1152 l7 -148 28 105 c44 169 95 304 178 475 184 378 418 645 724 827
l67 40 0 319 c0 176 -3 319 -7 319 -5 0 -40 -18 -80 -40z"/>
<path d="M5962 34783 c-230 -496 -388 -1048 -458 -1603 -21 -170 -30 -688 -15
-873 47 -560 202 -1121 445 -1612 l74 -150 1 2163 c1 1189 -1 2162 -3 2162 -2
0 -21 -39 -44 -87z"/>
<path d="M19130 30510 c-30 -5 -93 -22 -140 -39 -163 -56 -383 -68 -1580 -81
-1331 -14 -1835 -26 -1994 -47 -43 -5 -50 -10 -62 -39 -18 -44 -18 -157 1
-221 22 -73 68 -133 103 -133 15 0 37 6 48 14 58 41 575 55 2031 56 l1073 0
-5 -27 c-6 -33 -31 -345 -45 -553 -39 -591 -38 -1563 4 -3200 29 -1114 51
-2063 66 -2825 16 -825 41 -1520 60 -1715 7 -79 10 -86 41 -113 53 -44 167
-96 249 -113 140 -29 412 -15 524 27 61 23 121 64 147 100 34 48 46 214 74
1044 21 598 90 2288 125 3025 11 234 26 682 41 1235 6 209 13 995 16 1748 l5
1367 39 0 39 0 0 170 c0 196 15 174 -130 185 -109 8 -195 28 -281 66 -141 61
-323 89 -449 69z"/>
<path d="M5955 30113 c-174 -39 -264 -63 -385 -100 -659 -203 -1219 -568
-1584 -1033 l-47 -59 95 60 c416 261 1024 468 1596 543 98 13 328 36 368 36 9
0 12 63 12 280 0 306 4 287 -55 273z"/>
<path d="M5815 29214 c-16 -2 -79 -9 -140 -15 -681 -67 -1429 -389 -1945 -837
l-35 -31 230 60 c127 32 295 72 375 89 780 160 1813 104 3235 -176 154 -30
288 -57 298 -60 16 -5 17 13 15 328 l-3 333 -280 67 c-930 224 -1010 237
-1440 243 -154 2 -293 1 -310 -1z"/>
<path d="M26747 28451 c-198 -43 -367 -161 -436 -302 -46 -94 -61 -224 -37
-330 59 -266 251 -433 606 -526 178 -47 433 -31 576 36 152 71 233 231 221
436 -6 110 -56 310 -93 373 -54 93 -161 185 -283 247 -145 72 -390 102 -554
66z"/>
<path d="M21414 27534 c-192 -19 -304 -62 -459 -178 -259 -194 -372 -453 -391
-897 -11 -252 29 -464 122 -658 57 -120 113 -198 205 -287 178 -170 412 -279
691 -320 139 -20 419 -15 543 11 314 65 630 253 1024 609 261 236 429 360 476
354 17 -3 20 -10 18 -49 -2 -44 -76 -476 -173 -1019 -249 -1392 -347 -2264
-311 -2788 31 -457 122 -734 337 -1033 73 -100 236 -260 336 -327 70 -47 187
-112 202 -112 3 0 6 1333 6 2961 l0 2962 -86 -7 c-162 -13 -339 -71 -451 -147
-26 -18 -77 -58 -113 -89 -284 -247 -998 -767 -1079 -785 -42 -9 -89 3 -101
26 -23 43 -31 267 -29 844 3 637 0 681 -44 746 -33 49 -161 131 -242 157 -140
43 -249 49 -481 26z"/>
<path d="M29560 26985 c-89 -20 -183 -68 -220 -113 -121 -147 -204 -468 -309
-1197 -72 -502 -80 -631 -91 -1533 -13 -1167 9 -1771 91 -2417 51 -404 142
-949 215 -1280 179 -810 422 -1473 595 -1619 114 -97 348 -136 440 -73 80 55
86 90 99 627 15 612 51 1098 131 1740 204 1653 512 2801 1024 3815 216 428
469 820 706 1094 166 191 521 451 617 451 68 0 132 -235 191 -710 5 -38 8 168
7 500 l-1 565 -85 3 c-156 6 -339 -29 -491 -93 -254 -107 -599 -421 -828 -755
-221 -322 -635 -1180 -781 -1620 -212 -635 -455 -1661 -541 -2280 -24 -172
-30 -119 -24 195 10 527 28 950 75 1765 59 1004 70 1294 70 1801 0 522 -19
748 -70 849 -10 20 -55 70 -98 112 -86 80 -180 134 -287 164 -84 23 -346 29
-435 9z"/>
<path d="M26634 26829 c-192 -17 -353 -72 -439 -150 -227 -208 -374 -718 -425
-1479 -35 -520 -14 -1208 50 -1615 5 -33 12 -87 15 -120 20 -195 133 -703 180
-810 8 -16 30 -75 50 -130 84 -231 231 -494 373 -668 104 -126 299 -282 460
-365 243 -126 443 -158 802 -128 213 19 254 25 323 55 l47 20 0 221 c0 121 -3
220 -6 220 -3 0 -31 -23 -62 -51 -121 -107 -273 -154 -359 -111 -125 64 -228
255 -308 572 -111 438 -134 1105 -64 1905 30 347 143 1396 199 1855 39 315 36
446 -11 547 -55 116 -263 208 -527 233 -119 11 -165 11 -298 -1z"/>
<path d="M33052 24285 c-6 -72 -5 -71 -130 -100 -417 -94 -664 -196 -923 -381
-108 -77 -275 -238 -349 -336 -106 -140 -189 -312 -237 -486 -23 -85 -26 -116
-26 -252 0 -128 3 -169 21 -234 51 -183 150 -363 256 -463 178 -169 388 -253
629 -253 129 0 402 26 482 46 67 17 227 90 263 120 l22 19 -2 1175 c-2 646 -4
1162 -6 1145z m-32 -308 c0 -46 -43 -376 -64 -488 -47 -254 -133 -550 -227
-787 -100 -251 -206 -431 -319 -544 -112 -112 -181 -129 -331 -82 -97 30 -150
77 -199 174 -133 264 -144 578 -31 907 57 166 186 349 315 450 190 147 480
290 726 358 98 27 130 30 130 12z"/>
<path d="M64878 23363 l-128 -4 0 -54 0 -55 -290 0 -290 0 0 55 0 55 -193 0
c-107 0 -336 -3 -510 -7 l-317 -6 0 -49 0 -48 -290 0 -290 0 0 50 0 50 -142 0
c-79 0 -241 -3 -360 -7 l-218 -6 0 -44 0 -43 -290 0 -290 0 0 45 0 45 -105 0
-105 0 0 -45 0 -45 -670 0 -670 0 0 40 0 40 -113 0 -113 0 4 -40 4 -40 -290 0
c-312 0 -302 -2 -302 51 0 18 -11 19 -330 19 l-329 0 -7 -35 -6 -35 -295 0
-295 0 7 30 7 30 -61 0 -61 0 0 -30 0 -30 -705 0 -705 0 0 25 0 25 -126 0
-126 0 6 -25 6 -25 -309 0 -309 0 -6 25 c-6 24 -10 25 -85 25 -43 0 -153 -3
-244 -7 -153 -6 -167 -8 -167 -25 0 -17 -15 -18 -285 -18 -283 0 -285 0 -285
21 l0 21 -692 -7 -693 -7 -78 -24 c-121 -37 -209 -48 -377 -48 -156 1 -279 17
-371 49 -35 13 -127 15 -555 15 -283 0 -514 -3 -514 -7 0 -5 -528 -9 -1173 -9
-1055 -1 -1178 -3 -1232 -18 -106 -29 -288 -41 -422 -28 -65 7 -140 18 -168
25 -41 11 -967 6 -5240 -24 -2854 -21 -5373 -38 -5597 -38 l-408 -1 0 -500 0
-500 14690 0 14690 0 0 600 0 600 -527 -2 c-291 -1 -585 -4 -655 -5z"/>
</g>
</svg>
